<?xml version="1.0" standalone="no"?>
<!DOCTYPE svg PUBLIC "-//W3C//DTD SVG 20010904//EN"
 "http://www.w3.org/TR/2001/REC-SVG-20010904/DTD/svg10.dtd">
<svg version="1.0" xmlns="http://www.w3.org/2000/svg"
 width="2201.000000pt" height="2201.000000pt" viewBox="0 0 2201.000000 2201.000000"
 preserveAspectRatio="xMidYMid meet">
<metadata>
Created by potrace 1.14, written by Peter Selinger 2001-2017
</metadata>
<g transform="translate(0.000000,2201.000000) scale(0.100000,-0.100000)"
fill="#000000" stroke="none">
<path d="M6909 21996 c-2 -2 -116 -7 -254 -11 -328 -10 -551 -20 -690 -30 -27
-2 -95 -7 -150 -10 -55 -3 -122 -8 -150 -10 -27 -2 -84 -7 -125 -10 -41 -3
-91 -8 -110 -10 -19 -2 -69 -7 -110 -11 -41 -3 -86 -8 -100 -9 -14 -1 -61 -6
-105 -10 -44 -4 -82 -9 -85 -10 -3 -2 -37 -6 -75 -10 -39 -3 -81 -8 -95 -10
-38 -7 -131 -20 -210 -30 -25 -3 -52 -8 -60 -10 -8 -2 -35 -7 -60 -10 -62 -9
-265 -43 -320 -55 -25 -5 -56 -12 -70 -14 -342 -58 -916 -222 -1245 -356 -324
-131 -642 -299 -869 -458 -28 -19 -64 -45 -81 -56 -16 -12 -34 -25 -41 -31 -6
-5 -26 -21 -44 -35 -214 -160 -449 -394 -643 -640 -230 -291 -470 -727 -619
-1125 -143 -383 -257 -800 -343 -1260 -26 -138 -37 -199 -45 -255 -5 -36 -12
-76 -14 -90 -3 -14 -10 -61 -16 -106 -6 -44 -12 -91 -15 -103 -2 -12 -7 -50
-10 -84 -3 -34 -8 -69 -10 -77 -2 -8 -7 -44 -10 -80 -3 -36 -8 -81 -10 -100
-12 -103 -26 -245 -40 -420 -17 -208 -23 -294 -30 -415 -3 -55 -8 -145 -11
-200 -7 -134 -11 -226 -21 -505 -11 -313 -10 -8412 0 -8700 13 -342 24 -569
32 -675 2 -33 7 -109 11 -170 3 -60 8 -128 10 -150 2 -22 6 -76 9 -120 3 -44
8 -96 10 -115 2 -19 6 -60 9 -90 3 -30 8 -82 12 -115 3 -33 8 -76 10 -95 9
-96 15 -147 19 -170 2 -14 7 -47 10 -75 4 -27 8 -59 10 -70 1 -11 6 -45 9 -75
4 -30 14 -98 22 -150 21 -132 23 -148 34 -210 6 -30 12 -68 15 -85 3 -16 9
-50 15 -75 5 -25 12 -63 16 -85 4 -22 8 -44 9 -50 2 -5 8 -37 16 -70 7 -33 13
-62 14 -65 28 -130 88 -367 120 -475 9 -27 16 -54 16 -60 3 -23 134 -397 179
-509 166 -413 373 -778 612 -1077 111 -138 150 -181 289 -319 128 -127 147
-144 274 -245 55 -44 104 -84 110 -88 5 -5 51 -36 100 -70 313 -216 662 -392
1070 -539 95 -34 371 -123 415 -133 8 -2 87 -23 175 -45 168 -44 215 -55 410
-95 101 -21 183 -36 375 -69 56 -10 238 -38 275 -42 22 -3 69 -9 105 -14 36
-6 90 -13 120 -16 30 -3 69 -7 85 -9 17 -2 57 -7 90 -10 33 -4 71 -8 86 -11
14 -2 56 -6 95 -9 38 -3 87 -7 109 -9 22 -3 78 -7 125 -11 47 -3 108 -8 135
-11 28 -2 93 -7 145 -9 52 -3 111 -7 130 -10 19 -2 105 -7 190 -11 85 -3 187
-8 225 -9 39 -2 167 -7 285 -12 288 -11 8411 -10 8710 1 129 4 260 9 290 11
188 9 361 18 395 20 22 1 92 6 155 9 63 4 129 9 145 11 17 2 71 7 120 10 91 7
133 10 215 19 25 3 74 8 110 11 36 3 81 8 100 10 19 2 60 7 90 10 30 4 66 8
80 10 90 13 126 17 220 29 19 3 49 7 65 10 17 2 66 10 110 16 44 7 89 14 100
16 11 2 61 11 110 20 130 22 137 23 165 29 14 3 39 8 55 11 63 11 348 74 354
79 4 2 23 7 42 10 63 11 384 104 548 160 1138 387 1891 1016 2379 1991 80 158
164 351 216 494 15 41 31 84 36 95 7 16 33 98 76 233 2 7 3 13 3 15 0 1 4 14
10 29 14 37 98 345 105 385 4 18 10 43 16 57 5 15 8 26 5 26 -2 0 1 15 6 33 9
30 35 148 46 207 2 14 8 43 13 65 12 51 60 329 66 375 2 19 6 46 9 60 7 39 14
81 20 135 3 28 10 77 15 110 5 33 12 89 15 125 3 36 8 72 10 80 2 8 6 44 10
80 3 36 9 90 12 120 10 96 12 113 18 200 3 47 8 96 10 110 2 14 7 68 10 120 4
52 8 120 10 150 2 30 6 100 10 155 3 55 8 134 10 175 7 110 14 277 23 520 10
293 9 8387 -1 8675 -15 408 -24 608 -42 860 -2 33 -7 101 -10 150 -3 50 -8
106 -10 125 -3 19 -7 67 -10 105 -3 39 -7 86 -9 105 -3 19 -8 67 -11 105 -3
39 -8 87 -11 108 -3 21 -7 53 -8 70 -4 40 -15 130 -22 178 -2 20 -7 54 -10 75
-6 51 -33 232 -39 264 -2 14 -7 41 -9 60 -2 20 -7 47 -10 60 -3 14 -8 42 -11
63 -4 29 -64 333 -80 407 -93 423 -230 858 -375 1190 -77 176 -210 433 -286
553 -13 20 -36 56 -51 80 -183 286 -477 619 -733 828 -574 470 -1293 786
-2245 988 -144 31 -226 47 -282 56 -45 7 -83 14 -113 20 -14 3 -56 10 -95 15
-38 6 -95 15 -125 20 -30 5 -75 12 -100 15 -25 3 -61 8 -80 10 -19 3 -53 8
-75 10 -22 3 -56 7 -75 10 -33 5 -94 12 -170 20 -19 2 -68 7 -109 10 -41 4
-83 8 -93 10 -17 4 -108 12 -223 20 -27 2 -75 6 -105 9 -30 3 -98 8 -150 11
-52 3 -126 8 -165 10 -118 7 -264 15 -400 21 -71 3 -188 8 -260 11 -140 7
-8479 15 -8486 9z"/>
</g>
</svg>
